<svg width="48" height="48" viewBox="0 0 48 48" fill="none" xmlns="http://www.w3.org/2000/svg">
<path d="M26 42H7.2C6.88174 42 6.57652 41.8736 6.35147 41.6485C6.12643 41.4235 6 41.1183 6 40.8V7.2C6 6.88174 6.12643 6.57652 6.35147 6.35147C6.57652 6.12643 6.88174 6 7.2 6H40.8C41.1183 6 41.4235 6.12643 41.6485 6.35147C41.8736 6.57652 42 6.88174 42 7.2V26M32 38H38M38 38H44M38 38V32M38 38V44" stroke="#D3D3D3" stroke-width="3" stroke-linecap="round" stroke-linejoin="round"/>
<path d="M19.796 17.0257C19.6136 16.9213 19.407 16.8667 19.1969 16.8672C18.9868 16.8677 18.7805 16.9234 18.5987 17.0287C18.4168 17.134 18.2658 17.2852 18.1608 17.4672C18.0557 17.6492 18.0003 17.8555 18 18.0657V29.9317C17.9999 30.142 18.0551 30.3486 18.16 30.5308C18.2649 30.7131 18.4159 30.8646 18.5978 30.9701C18.7797 31.0756 18.9861 31.1315 19.1964 31.1321C19.4067 31.1328 19.6135 31.0781 19.796 30.9737L30.176 25.0417C30.3597 24.9367 30.5124 24.7851 30.6187 24.6021C30.7249 24.4191 30.7808 24.2112 30.7808 23.9997C30.7808 23.7881 30.7249 23.5802 30.6187 23.3973C30.5124 23.2143 30.3597 23.0626 30.176 22.9577L19.796 17.0257Z" stroke="#D3D3D3" stroke-width="3" stroke-linecap="round" stroke-linejoin="round"/>
</svg>
