<svg width="16" height="16" viewBox="0 0 16 16" fill="none" xmlns="http://www.w3.org/2000/svg">
<path d="M3.33341 3.33398C3.50008 4.33398 3.66675 4.83398 3.83341 6.00065C3.96675 6.93398 4.00008 8.38965 4.00008 9.00065C3.27775 9.33398 1.66675 10.0007 1.66675 11.334C1.66675 12.6673 3.33341 14.334 8.00008 14.334C12.6667 14.334 14.3334 12.6673 14.3334 11.334C14.3334 10.0007 12.0001 9.00065 12.0001 9.00065C12.0001 9.00065 12.0001 7.16732 12.1667 6.00065C12.3334 4.83398 12.5001 4.33398 12.6667 3.33398" stroke="#FF4D00" stroke-width="1.33333" stroke-linecap="round" stroke-linejoin="round"/>
<path d="M12.0002 9C12.0002 10.3333 11.6668 11.6667 7.8335 11.6667" stroke="#FF4D00" stroke-width="1.33333" stroke-linecap="round" stroke-linejoin="round"/>
<path d="M8.00016 5.00033C10.5775 5.00033 12.6668 4.25413 12.6668 3.33366C12.6668 2.41318 10.5775 1.66699 8.00016 1.66699C5.42283 1.66699 3.3335 2.41318 3.3335 3.33366C3.3335 4.25413 5.42283 5.00033 8.00016 5.00033Z" stroke="#FF4D00" stroke-width="1.33333"/>
</svg>
